Coordinates
version=1
nRows=6
nColumns=36
inDegrees=yes

Units are S.I. units (second, meters, Newtons, ...)
If the header above contains a line with 'inDegrees', this indicates whether rotational values are in degrees (yes) or radians (no).

endheader
time	pelvis_tilt	pelvis_list	pelvis_rotation	pelvis_tx	pelvis_ty	pelvis_tz	hip_flexion_r	hip_adduction_r	hip_rotation_r	knee_angle_r	knee_angle_r_beta	ankle_angle_r	subtalar_angle_r	mtp_angle_r	hip_flexion_l	hip_adduction_l	hip_rotation_l	knee_angle_l	knee_angle_l_beta	ankle_angle_l	subtalar_angle_l	mtp_angle_l	lumbar_extension	lumbar_bending	lumbar_rotation	arm_flex_r	arm_add_r	arm_rot_r	elbow_flex_r	pro_sup_r	arm_flex_l	arm_add_l	arm_rot_l	elbow_flex_l	pro_sup_l
      0.00000000	      1.17549885	      2.17588642	    182.01629705	      0.48912306	      0.86796085	      0.72480688	     17.49326948	      4.12746759	      1.30433900	     16.02788878	      0.27973943	    -15.23367245	    -15.50360214	     -7.97807509	     11.41358743	     -1.66410285	      2.81035262	     68.99565143	      1.20420129	    -16.38303269	    -20.94457825	     -7.97807509	    -10.65737971	      3.26892012	     -4.41401634	     -0.71470213	     -8.62543770	    -15.15706346	     18.61396109	     92.78880056	     13.77878979	    -14.17874680	     -0.68217590	     19.83243954	     92.99631185
      0.01666670	      2.58618777	      1.28434110	    181.16784670	      0.48935570	      0.86600763	      0.72128616	     18.14566322	      3.06599191	      0.03800390	     16.95077510	      0.29584684	    -17.31363969	    -15.94857045	     -7.95280898	     17.30685308	     -1.19339686	      1.36483803	     74.34754395	      1.29760943	    -20.92001712	    -24.17317449	     -7.95280898	     -9.08855532	      1.54806800	     -3.42570427	      0.64856993	     -8.91058827	    -15.56162566	     14.73905049	     92.55827483	     14.50301185	    -14.68241668	     -1.99398391	     17.76477246	     92.79715335
      0.03333330	      4.90241906	      1.04471902	    181.94721012	      0.49071321	      0.86541071	      0.72119858	     20.54669332	      2.14064135	     -1.93671465	     19.31685909	      0.33714279	    -18.46714617	    -17.19983417	     -7.92140005	     23.71405960	     -0.95404696	      1.29809375	     77.91827403	      1.35993043	    -21.11004329	    -25.44864110	     -7.92140005	     -6.49933422	      0.91458529	     -4.38828519	      1.82946493	     -8.98556687	    -16.18363104	     13.33754617	     92.42354079	     13.60514327	    -15.04737356	     -2.63830253	     17.05190831	     93.27673766
      0.05000000	      5.89881030	      0.71289820	    181.81533740	      0.49347305	      0.86831792	      0.72227207	     22.03749915	      1.23067770	     -2.96115041	     22.18584556	      0.38721605	    -17.55040365	    -19.20073231	     -7.89314632	     28.28240946	     -0.65443459	      0.24862985	     79.61846812	      1.38960441	    -20.81168833	    -26.94035697	     -7.89314632	     -6.12073524	      0.47155948	     -4.46535457	      3.74770264	     -9.38623322	    -16.50268701	     13.16935339	     92.31381969	     13.11620240	    -14.99263919	     -2.81153810	     17.27665961	     93.88721555
      0.06666670	      6.28713972	      0.78808262	    181.54135511	      0.49370888	      0.87086885	      0.72408883	     22.56843535	      0.63985681	     -3.59058561	     24.80034598	      0.43284769	    -16.51449260	    -20.86349970	     -7.87151289	     31.35987877	     -0.40950091	     -0.57894845	     79.57632301	      1.38886884	    -20.04473699	    -27.42052726	     -7.87151289	     -6.66270146	      0.70320501	     -4.15388606	      5.48041346	    -10.06840688	    -16.53158513	     13.45328202	     92.13413491	     12.84124563	    -14.43365435	     -2.76357656	     17.42891521	     94.35578636
      0.08333330	      6.36254467	      1.37636938	    180.97770586	      0.49164602	      0.87116289	      0.72444682	     22.57969230	      0.69954579	     -3.87464569	     27.29002361	      0.47630076	    -14.36924680	    -22.60790647	     -7.83059075	     33.54043357	     -0.69528187	     -1.09344210	     78.55289708	      1.37100669	    -19.16732321	    -27.16109281	     -7.83059075	     -7.25872330	      1.64983448	     -3.52553432	      7.00768494	    -10.73129971	    -15.91934070	     13.58569817	     88.92025643	     12.50919103	    -13.38319450	     -2.40875252	     17.10200897	     91.75256520
